<svg xmlns="http://www.w3.org/2000/svg" viewBox="0 0 512 512">
  <defs>
    <linearGradient id="background" x1="0" y1="0" x2="1" y2="1">
      <stop offset="0" stop-color="#292524"/>
      <stop offset="1" stop-color="#0c0a09"/>
    </linearGradient>
    <linearGradient id="flame" x1="0" y1="0" x2="0" y2="1">
      <stop offset="0" stop-color="#fbbf24"/>
      <stop offset="0.55" stop-color="#f59e0b"/>
      <stop offset="1" stop-color="#dc2626"/>
    </linearGradient>
  </defs>
  <rect width="512" height="512" rx="112" fill="url(#background)"/>
  <path fill="url(#flame)" d="M267 67c22 75-19 100-19 151 0 24 14 42 31 52-2-41 24-69 49-96 4 55 67 91 67 170 0 78-62 121-139 121S117 422 117 344c0-69 45-108 82-151 25-29 49-65 50-126 7 0 12 0 18 0Z"/>
  <path fill="#fde68a" d="M256 278c31 39 57 59 57 98 0 34-25 56-57 56s-57-22-57-56c0-39 26-59 57-98Z"/>
</svg>
